<svg width="313" height="40" viewBox="0 0 313 40" fill="none" xmlns="http://www.w3.org/2000/svg">
<circle cx="20" cy="20" r="20" fill="url(#paint0_linear_5_6)"/>
<path d="M95.5872 26.592V33H74.6352V7.8H95.1192V14.208H82.9872V17.16H93.6432V23.28H82.9872V26.592H95.5872ZM125.93 28.608H116.354L114.662 33H106.022L117.038 7.8H125.39L136.406 33H127.622L125.93 28.608ZM123.59 22.488L121.142 16.152L118.694 22.488H123.59ZM158.462 26.664H156.158V33H147.662V7.8H159.794C162.122 7.8 164.15 8.184 165.878 8.952C167.606 9.72 168.938 10.824 169.874 12.264C170.81 13.704 171.278 15.384 171.278 17.304C171.278 19.104 170.87 20.676 170.054 22.02C169.238 23.364 168.062 24.432 166.526 25.224L171.818 33H162.746L158.462 26.664ZM162.71 17.304C162.71 16.368 162.422 15.648 161.846 15.144C161.27 14.616 160.406 14.352 159.254 14.352H156.158V20.256H159.254C160.406 20.256 161.27 20.004 161.846 19.5C162.422 18.972 162.71 18.24 162.71 17.304ZM189.506 14.388H182.126V7.8H205.382V14.388H198.002V33H189.506V14.388ZM242.329 7.8V33H233.833V23.712H225.985V33H217.489V7.8H225.985V16.728H233.833V7.8H242.329ZM256.323 7.8H264.819V26.412H276.195V33H256.323V7.8ZM300.886 23.856V33H292.39V23.748L282.886 7.8H291.85L296.998 16.512L302.182 7.8H310.39L300.886 23.856Z" fill="url(#paint1_linear_5_6)"/>
<defs>
<linearGradient id="paint0_linear_5_6" x1="20" y1="0" x2="20" y2="40" gradientUnits="userSpaceOnUse">
<stop stop-color="#2B03F2"/>
<stop offset="1" stop-color="#039CF2"/>
</linearGradient>
<linearGradient id="paint1_linear_5_6" x1="191" y1="0" x2="191" y2="40" gradientUnits="userSpaceOnUse">
<stop stop-color="#2B03F2"/>
<stop offset="1" stop-color="#039CF2"/>
</linearGradient>
</defs>
</svg>
